<svg id="Capa_1" data-name="Capa 1" xmlns="http://www.w3.org/2000/svg" viewBox="0 0 60 60"><defs><style>.cls-1{fill:#fff;}</style></defs><path class="cls-1" d="M31.94,30q0,9.75,0,19.5a3.18,3.18,0,0,1-.3,1.66,2.11,2.11,0,0,1-3.36.36c-2.5-2.13-5-4.28-7.47-6.42-1.62-1.4-3.26-2.78-4.86-4.21a2.78,2.78,0,0,0-2-.71c-2.88,0-5.76,0-8.64,0-2.47,0-3.81-1.33-3.82-3.77q0-6.48,0-13a3.33,3.33,0,0,1,3.68-3.67c2.95,0,5.9,0,8.84,0a2.5,2.5,0,0,0,1.82-.65c4.1-3.56,8.23-7.08,12.33-10.62A2.18,2.18,0,0,1,30.72,8a2.33,2.33,0,0,1,1.22,2.35Q31.92,20.18,31.94,30Z"/><path class="cls-1" d="M58.52,30.53A30.25,30.25,0,0,1,50.2,50.79a3.47,3.47,0,0,1-.65.62,1.41,1.41,0,0,1-2-.13,1.36,1.36,0,0,1,0-2c.6-.68,1.24-1.33,1.8-2a27.24,27.24,0,0,0-1.34-36,5.91,5.91,0,0,1-.48-.52,1.45,1.45,0,1,1,2.13-2,23.87,23.87,0,0,1,3.07,3.59A31,31,0,0,1,58.52,30.53Z"/><path class="cls-1" d="M50.29,30.07a22.07,22.07,0,0,1-6.09,15.1,1.82,1.82,0,0,1-1.34.79,1.4,1.4,0,0,1-1.37-.84,1.44,1.44,0,0,1,.38-1.74,19.56,19.56,0,0,0,3.46-4.91,19,19,0,0,0-3.07-21.4c-.16-.17-.33-.33-.48-.51A1.48,1.48,0,1,1,44,14.63a22.12,22.12,0,0,1,6.27,15.44Z"/><path class="cls-1" d="M42,29.8a13.8,13.8,0,0,1-3.39,9.32,3.77,3.77,0,0,1-.56.57A1.47,1.47,0,1,1,36,37.61a10.89,10.89,0,0,0,2.24-3.42A10.67,10.67,0,0,0,36.52,23L36,22.35a1.46,1.46,0,1,1,2.14-2,12.26,12.26,0,0,1,2.11,2.8A13,13,0,0,1,42,29.8Z"/></svg>