<svg id="Capa_1" data-name="Capa 1" xmlns="http://www.w3.org/2000/svg" viewBox="0 0 32 32"><defs><style>.cls-1{fill:#fff;}</style></defs><path class="cls-1" d="M6.5,16c.25,0,.51,0,.77,0a4.24,4.24,0,0,1,1.15.12c.56.51,1.15,1.09,1.79,1.75A74.41,74.41,0,0,1,16,24.8a59.19,59.19,0,0,1,7.58-8.68,3.07,3.07,0,0,1,.88-.12c.44,0,.79,0,1,0L19.65,26.21l-1.07,2a9.19,9.19,0,0,0-1,2.35H14.4a5.8,5.8,0,0,0-.73-1.83L11.09,24Z"/><path class="cls-1" d="M6.5,1.5c.25,0,.51,0,.77,0a4.24,4.24,0,0,1,1.15.12c.56.5,1.15,1.08,1.79,1.74A74.41,74.41,0,0,1,16,10.26a59.1,59.1,0,0,1,7.58-8.67,3.07,3.07,0,0,1,.88-.12c.44,0,.79,0,1,0L19.65,11.68l-1.07,2a9,9,0,0,0-1,2.35H14.4a5.63,5.63,0,0,0-.73-1.83L11.09,9.43Z"/></svg>