<?xml version="1.0" encoding="utf-8"?>
<!-- Generator: Adobe Illustrator 25.3.0, SVG Export Plug-In . SVG Version: 6.00 Build 0)  -->
<svg version="1.1" id="Capa_1" xmlns="http://www.w3.org/2000/svg" xmlns:xlink="http://www.w3.org/1999/xlink" x="0px" y="0px"
	 viewBox="0 0 32 32" style="enable-background:new 0 0 32 32;" xml:space="preserve">
<path d="M14.4,11.3c0.2,0.2,0.3,0.5,0.3,0.8s0,0.6-0.1,0.9c-0.1,0.2-0.1,0.5-0.3,0.7c-0.2,0.5-0.6,0.8-0.9,0.9h-10
	c0.7-0.3,1.1-0.5,1.3-0.8c0.4-0.4,0.6-0.9,0.6-1.6c0-1.6,0-3,0-4.3V3.2c0-0.9-0.2-1.5-0.6-1.9C4.5,1.1,4.3,1,4.1,0.8h5.1
	c-0.5,0.5-0.8,1-0.8,1.6c0,0.2,0,0.4,0,0.6v8.3c0,1.1,0.1,1.8,0.2,2c0.2,0.2,0.4,0.3,0.6,0.4c0.2,0,0.6,0.1,1.1,0.1s0.9-0.1,1.3-0.2
	c0.4-0.1,0.8-0.3,1.1-0.5C13.3,12.7,13.9,12.1,14.4,11.3z"/>
<path d="M25.6,10l0.1-3.5c0-2.4-0.1-4-0.4-4.6c-0.1-0.3-0.3-0.6-0.4-0.7s-0.3-0.3-0.4-0.4h4.1l-0.3,0.3c-0.3,0.4-0.5,0.8-0.6,1.3
	s-0.1,1-0.1,1.5s0,1-0.1,1.5c0,0.8,0,1.8,0,2.8v1.1c0,1.9-0.4,3.3-1.3,4.2c-0.9,0.8-2.3,1.2-4.2,1.2c-3.7,0-5.6-1.7-5.6-5.2V2.8
	c0-0.9-0.2-1.6-0.7-2h4.7c-0.5,0.4-0.7,1-0.7,1.8c0,0.5,0,0.9,0,1.4v2.9c0,0.5,0,1,0,1.5c0,1.8,0.1,3,0.2,3.4
	c0.1,0.5,0.3,0.9,0.5,1.1c0.5,0.6,1.2,0.9,2.2,0.9c1.5,0,2.4-0.8,2.8-2.4C25.6,11,25.6,10.5,25.6,10z"/>
<path d="M14.4,27.6c0.2,0.2,0.3,0.5,0.3,0.8s0,0.6-0.1,0.9c-0.1,0.2-0.1,0.5-0.3,0.7c-0.2,0.5-0.6,0.8-0.9,0.9h-10
	c0.7-0.3,1.1-0.5,1.3-0.8c0.4-0.4,0.6-0.9,0.6-1.6c0-1.6,0-3,0-4.3v-4.7c0-0.9-0.2-1.5-0.6-1.9c-0.1-0.2-0.3-0.3-0.5-0.5h5.1
	c-0.5,0.5-0.8,1-0.8,1.6c0,0.2,0,0.4,0,0.6v8.3c0,1.1,0.1,1.8,0.2,2c0.2,0.2,0.4,0.3,0.6,0.4c0.2,0,0.6,0.1,1.1,0.1s0.9-0.1,1.3-0.2
	c0.4-0.1,0.8-0.3,1.1-0.5C13.3,28.9,13.9,28.3,14.4,27.6z"/>
<path d="M25.6,26.3l0.1-3.5c0-2.4-0.1-4-0.4-4.6c-0.1-0.3-0.3-0.6-0.4-0.7s-0.3-0.3-0.4-0.4h4.1l-0.3,0.3c-0.4,0.4-0.6,0.8-0.6,1.3
	s-0.1,1-0.1,1.5s0,1-0.1,1.5c0,0.8,0,1.8,0,2.8v1.1c0,1.9-0.4,3.3-1.3,4.2C25.3,30.6,23.9,31,22,31c-3.7,0-5.6-1.7-5.6-5.2v-6.7
	c0-0.9-0.2-1.6-0.7-2h4.7c-0.5,0.4-0.7,1-0.7,1.8c0,0.5,0,0.9,0,1.4v2.9c0,0.5,0,1,0,1.5c0,1.8,0.1,3,0.2,3.4
	c0.1,0.5,0.3,0.9,0.5,1.1c0.5,0.6,1.2,0.9,2.2,0.9c1.5,0,2.4-0.8,2.8-2.4C25.6,27.3,25.6,26.8,25.6,26.3z"/>
</svg>
