<?xml version="1.0" encoding="utf-8"?>
<!-- Generator: Adobe Illustrator 25.3.0, SVG Export Plug-In . SVG Version: 6.00 Build 0)  -->
<svg version="1.1" id="Capa_1" xmlns="http://www.w3.org/2000/svg" xmlns:xlink="http://www.w3.org/1999/xlink" x="0px" y="0px"
	 viewBox="0 0 32 32" style="enable-background:new 0 0 32 32;" xml:space="preserve">
<path d="M3.9,17.4h6.3v6.5c0,0.9,0.2,1.6,0.5,1.9c0.3,0.3,0.9,0.5,1.9,0.5h0.3V32h-1.7c-2.3,0-4.1-0.6-5.3-1.9
	c-1.3-1.3-1.9-3-1.9-5.3V17.4z"/>
<g>
	<path d="M27.4,18.4v6.3c0,2-0.6,3.5-1.7,4.6c-1.1,1.1-2.6,1.7-4.6,1.7c-1.9,0-3.3-0.5-4.3-1.6c-1-1.1-1.5-2.7-1.5-4.9v-6.1h3.8v6.1
		c0,2.6,1.7,2.8,2.3,2.8c0.5,0,2.2-0.2,2.2-2.8v-6.1H27.4 M28.4,17.4h-5.8v7.1c0,1.2-0.4,1.8-1.2,1.8c-0.8,0-1.3-0.6-1.3-1.8v-7.1
		h-5.8v7.1c0,2.4,0.6,4.3,1.7,5.6c1.2,1.3,2.8,1.9,5,1.9c2.2,0,4-0.7,5.3-2c1.3-1.3,2-3.1,2-5.3V17.4L28.4,17.4z"/>
</g>
<g>
	<path d="M9.1,1v5.5c0,1.2,0.2,2.1,0.8,2.6c0.4,0.4,1,0.6,1.9,0.7v3.9h-0.7c-2,0-3.5-0.5-4.6-1.6c-1.1-1.1-1.6-2.6-1.6-4.6V1H9.1
		 M10.1,0H3.9v7.4c0,2.3,0.6,4,1.9,5.3c1.3,1.3,3.1,1.9,5.3,1.9h1.7V8.8h-0.3c-0.9,0-1.5-0.2-1.9-0.5c-0.3-0.3-0.5-0.9-0.5-1.9V0
		L10.1,0z"/>
</g>
<path d="M28.4,0v7.3c0,2.2-0.7,4-2,5.3c-1.3,1.3-3.1,2-5.3,2c-2.2,0-3.9-0.6-5-1.9c-1.2-1.3-1.7-3.1-1.7-5.6V0h5.8v7.1
	c0,1.2,0.4,1.8,1.3,1.8c0.8,0,1.2-0.6,1.2-1.8V0H28.4z"/>
</svg>
