<?xml version="1.0" encoding="utf-8"?>
<!-- Generator: Adobe Illustrator 25.3.0, SVG Export Plug-In . SVG Version: 6.00 Build 0)  -->
<svg version="1.1" id="Capa_1" xmlns="http://www.w3.org/2000/svg" xmlns:xlink="http://www.w3.org/1999/xlink" x="0px" y="0px"
	 viewBox="0 0 32 32" style="enable-background:new 0 0 32 32;" xml:space="preserve">
<style type="text/css">
	.st0{fill:#FFFFFF;}
</style>
<g>
	<path class="st0" d="M16,6.5c0,0.3,0,0.5,0,0.8c0,0.5,0,0.9-0.1,1.2c-0.5,0.6-1.1,1.2-1.7,1.8C11.3,12.8,9,14.7,7.2,16
		c3.2,2.3,6.1,4.8,8.7,7.6c0.1,0.3,0.1,0.6,0.1,0.9c0,0.4,0,0.8,0,1L5.8,19.7l-2-1.1c-1.3-0.7-2.1-1-2.4-1v-3.2
		c0.3,0,0.9-0.2,1.8-0.7L8,11.1L16,6.5z"/>
	<path class="st0" d="M30.5,6.5c0,0.3,0,0.5,0,0.8c0,0.5,0,0.9-0.1,1.2c-0.5,0.6-1.1,1.2-1.7,1.8c-2.8,2.6-5.1,4.5-6.9,5.8
		c3.2,2.3,6.1,4.8,8.7,7.6c0.1,0.3,0.1,0.6,0.1,0.9c0,0.4,0,0.8,0,1l-10.2-5.9l-2-1.1c-1.3-0.7-2.1-1-2.4-1v-3.2
		c0.3,0,0.9-0.2,1.8-0.7l4.7-2.6L30.5,6.5z"/>
</g>
</svg>
