<?xml version="1.0" encoding="utf-8"?>
<!-- Generator: Adobe Illustrator 25.3.0, SVG Export Plug-In . SVG Version: 6.00 Build 0)  -->
<svg version="1.1" id="Capa_1" xmlns="http://www.w3.org/2000/svg" xmlns:xlink="http://www.w3.org/1999/xlink" x="0px" y="0px"
	 viewBox="0 0 1366 1808.6" style="enable-background:new 0 0 1366 1808.6;" xml:space="preserve">
<style type="text/css">
	.st0{fill:#FFFFED;}
	.st1{fill:#F7F719;}
	.st2{fill:#FF4400;}
	.st3{fill:#FF0037;}
</style>
<rect x="-7" y="0" class="st0" width="1385.9" height="1831.7"/>
<g>
	<path class="st1" d="M1378.9,1011.2h-238.5c-102.4,0-185.6-83.3-185.6-185.6V679c0-44-17.1-85.3-48.2-116.3
		c-31.1-31.1-72.4-48.2-116.3-48.2H270v-21.2h520.2c49.6,0,96.2,19.3,131.3,54.4c35.1,35.1,54.4,81.7,54.4,131.3v146.6
		c0,90.7,73.8,164.4,164.4,164.4h238.6V1011.2z"/>
</g>
<path class="st2" d="M229.7-112.2v583.6c0,40.6-32.5,74.1-73.1,74.3c-40.8,0.2-74-32.9-74-73.6v-587.6H61.3v587.6
	c0,52.4,42.8,95,95.3,94.8c52.4-0.3,94.3-43.5,94.3-95.9v-583.3"/>
<path class="st1" d="M194.4-112.2v583.8c0,21.3-17.5,39.1-38.9,38.9c-20.8-0.4-37.6-17.4-37.6-38.2v-587.6l-21.1,0.1v586.9
	c0,32.7,26.1,59.9,58.9,60.2c33,0.3,60-26.4,60-59.4v-584.5"/>
<g>
	<path class="st2" d="M1378.9,1046.6h-238.5c-59,0-114.5-23-156.2-64.7c-41.7-41.8-64.7-97.2-64.7-156.2V679
		c0-71.2-57.9-129.2-129.2-129.2H249.5l17-21.2h523.7c82.9,0,150.4,67.5,150.4,150.4v146.6c0,110.2,89.6,199.8,199.8,199.8h238.6
		V1046.6z"/>
</g>
<g>
	<path class="st3" d="M1378.9,1081.9h-238.5c-34.6,0-68.2-6.8-99.8-20.1c-30.5-12.9-57.9-31.4-81.5-54.9s-42-51-54.9-81.5
		c-13.4-31.7-20.1-65.2-20.1-99.8V679c0-51.7-42.1-93.8-93.8-93.8H214.4l31-21.2h544.7c63.5,0,115,51.6,115,115v146.6
		c0,31.7,6.2,62.5,18.5,91.5c11.9,28,28.8,53.1,50.4,74.8s46.7,38.5,74.8,50.4c29,12.3,59.8,18.5,91.5,18.5h238.5V1081.9z"/>
</g>
<path class="st3" d="M265-112.2v583.4c0,60.2-48.4,109.8-108.6,110c-60.2,0.1-109.2-48.8-109.2-108.9v-587.6H26v586.5
	c0,71.9,57.9,131.2,130,131.2c71.8,0.1,130.3-58.2,130.3-130v-584.5"/>
</svg>
