<?xml version="1.0" encoding="utf-8"?>
<!-- Generator: Adobe Illustrator 25.3.0, SVG Export Plug-In . SVG Version: 6.00 Build 0)  -->
<svg version="1.1" id="Capa_1" xmlns="http://www.w3.org/2000/svg" xmlns:xlink="http://www.w3.org/1999/xlink" x="0px" y="0px"
	 viewBox="0 0 1366 3503" style="enable-background:new 0 0 1366 3503;" xml:space="preserve">
<style type="text/css">
	.st0{fill:#F7F719;}
	.st1{fill:#FF4400;}
	.st2{fill:#00FF00;}
	.st3{fill:#0088C4;}
	.st4{fill:#FF0037;}
	.st5{fill:none;}
</style>
<g>
	<path class="st0" d="M1366,2855.08h-325.44c-144.86,0-262.72-117.86-262.72-262.72v-207.54c0-62.19-24.22-120.66-68.19-164.63
		c-43.97-43.97-102.44-68.19-164.63-68.19H441v-30h104.02c70.2,0,136.2,27.34,185.84,76.98c49.64,49.64,76.98,115.64,76.98,185.84
		v207.54c0,128.32,104.4,232.72,232.72,232.72H1366V2855.08z"/>
</g>
<g>
	<path class="st1" d="M1366,2905.08h-325.44c-83.53,0-162.06-32.53-221.13-91.59c-59.07-59.06-91.59-137.6-91.59-221.13v-207.54
		c0-100.81-82.01-182.82-182.82-182.82H412v-30h133.02c117.35,0,212.82,95.47,212.82,212.82v207.54
		c0,155.89,126.83,282.72,282.72,282.72H1366V2905.08z"/>
</g>
<rect width="1366" height="1700"/>
<g>
	<path class="st0" d="M287.8,622v90h39v-90H287.8z M124.9,622h39V82h-39V622z"/>
	<path class="st0" d="M627.09,82v480.6c0,93.83-43.67,150.22-128.1,157.58c6.28,0.54,12.78,0.82,19.5,0.82
		c97.2,0,147.6-57.6,147.6-158.4V82H627.09z M469.89,569.8V82h-39v487.8c0,45,18.9,61.2,50.4,61.2c7.18,0,13.71-0.84,19.5-2.68
		C481.16,622.12,469.89,604.54,469.89,569.8z"/>
	<path class="st0" d="M959.19,622v90h39v-90H959.19z M796.29,622h39V82h-39V622z"/>
	<path class="st0" d="M1298.48,82v480.6c0,93.83-43.67,150.22-128.1,157.58c6.28,0.54,12.78,0.82,19.5,0.82
		c97.2,0,147.6-57.6,147.6-158.4V82H1298.48z M1141.28,569.8V82h-39v487.8c0,45,18.9,61.2,50.4,61.2c7.18,0,13.71-0.84,19.5-2.68
		C1152.55,622.12,1141.28,604.54,1141.28,569.8z"/>
</g>
<g>
	<polygon class="st2" points="287.8,622 287.8,712 64.9,712 64.9,82 124.9,82 124.9,622 	"/>
	<path class="st2" d="M627.09,82v480.6c0,93.83-43.67,150.22-128.1,157.58c-84.43-7.36-128.1-63.75-128.1-157.58V82h60v487.8
		c0,45,18.9,61.2,50.4,61.2c7.18,0,13.71-0.84,19.5-2.68c5.79,1.84,12.32,2.68,19.5,2.68c31.5,0,50.4-16.2,50.4-61.2V82H627.09z"/>
	<polygon class="st2" points="959.19,622 959.19,712 736.29,712 736.29,82 796.29,82 796.29,622 	"/>
	<g>
		<path class="st3" d="M25.9,82v630h39V82H25.9z"/>
		<path class="st3" d="M531.69,82v487.8c0,34.74-11.27,52.32-30.9,58.52c5.79,1.84,12.32,2.68,19.5,2.68c31.5,0,50.4-16.2,50.4-61.2
			V82H531.69z M370.89,562.6V82h-39v480.6c0,100.8,50.4,158.4,147.6,158.4c6.72,0,13.22-0.28,19.5-0.82
			C414.56,712.82,370.89,656.43,370.89,562.6z"/>
		<path class="st3" d="M697.29,82v630h39V82H697.29z"/>
		<path class="st3" d="M1203.08,82v487.8c0,34.74-11.27,52.32-30.9,58.52c5.79,1.84,12.32,2.68,19.5,2.68
			c31.5,0,50.4-16.2,50.4-61.2V82H1203.08z M1042.28,562.6V82h-39v480.6c0,100.8,50.4,158.4,147.6,158.4
			c6.72,0,13.22-0.28,19.5-0.82C1085.95,712.82,1042.28,656.43,1042.28,562.6z"/>
	</g>
	<path class="st2" d="M1298.48,82v480.6c0,93.83-43.67,150.22-128.1,157.58c-84.43-7.36-128.1-63.75-128.1-157.58V82h60v487.8
		c0,45,18.9,61.2,50.4,61.2c7.18,0,13.71-0.84,19.5-2.68c5.79,1.84,12.32,2.68,19.5,2.68c31.5,0,50.4-16.2,50.4-61.2V82H1298.48z"/>
</g>
<g>
	<path class="st4" d="M-77,2871.64h-290.04c-48.97,0-96.51-9.61-141.3-28.55c-43.23-18.28-82.04-44.45-115.35-77.76
		c-33.31-33.31-59.48-72.12-77.76-115.35c-18.94-44.79-28.55-92.33-28.55-141.3V1520.4c0-60.65-49.35-110-110-110
		s-110,49.35-110,110v526.73c0,101.5-82.58,184.08-184.08,184.08s-184.08-82.58-184.08-184.08v-861.8
		c0-68.84-56.01-124.85-124.85-124.85v-30c85.38,0,154.85,69.46,154.85,154.85v861.8c0,84.96,69.12,154.08,154.08,154.08
		S-980,2132.08-980,2047.12V1520.4c0-77.2,62.8-140,140-140s140,62.8,140,140v988.28c0,44.93,8.81,88.54,26.18,129.61
		c16.77,39.65,40.77,75.26,71.34,105.83c30.57,30.57,66.17,54.57,105.82,71.34c41.07,17.37,84.68,26.18,129.61,26.18H-77V2871.64z"
		/>
</g>
<g>
	<path class="st1" d="M-77,2821.64h-290.04c-172.57,0-312.96-140.39-312.96-312.96V1520.4c0-42.74-16.64-82.92-46.86-113.14
		c-30.22-30.22-70.4-46.86-113.14-46.86s-82.92,16.64-113.14,46.86s-46.86,70.4-46.86,113.14v526.73
		c0,73.93-60.15,134.08-134.08,134.08s-134.08-60.15-134.08-134.08v-861.8c0-46.7-18.19-90.61-51.21-123.64
		c-33.02-33.02-76.93-51.21-123.64-51.21v-30c54.72,0,106.16,21.31,144.85,60s60,90.13,60,144.85v861.8
		c0,57.39,46.69,104.08,104.08,104.08s104.08-46.69,104.08-104.08V1520.4c0-50.75,19.76-98.46,55.65-134.35
		c35.89-35.89,83.6-55.65,134.35-55.65c50.75,0,98.46,19.76,134.35,55.65c35.89,35.89,55.65,83.6,55.65,134.35v988.28
		c0,156.02,126.94,282.96,282.96,282.96H-77V2821.64z"/>
</g>
<g>
	<path class="st0" d="M-77,2771.64h-290.04c-145,0-262.96-117.96-262.96-262.96V1520.4c0-56.09-21.84-108.83-61.51-148.49
		c-39.66-39.66-92.4-61.51-148.49-61.51c-56.09,0-108.83,21.84-148.49,61.51c-39.66,39.66-61.51,92.4-61.51,148.49v526.73
		c0,46.36-37.72,84.08-84.08,84.08s-84.08-37.72-84.08-84.08v-861.8c0-60.06-23.39-116.52-65.86-158.99
		c-42.47-42.47-98.93-65.86-158.99-65.86v-30c68.07,0,132.07,26.51,180.21,74.64c48.13,48.13,74.64,112.13,74.64,180.21v861.8
		c0,29.82,24.26,54.08,54.08,54.08s54.08-24.26,54.08-54.08V1520.4c0-64.11,24.96-124.38,70.29-169.71
		c45.33-45.33,105.6-70.29,169.71-70.29c64.11,0,124.38,24.96,169.71,70.29c45.33,45.33,70.29,105.6,70.29,169.71v988.28
		c0,128.45,104.5,232.96,232.96,232.96H-77V2771.64z"/>
</g>
<path class="st5" d="M628.43,1374.84c5.66,35.38,26.22,65.83,55.03,84.71C679.9,1423.27,658.63,1392.11,628.43,1374.84z"/>
<g>
	<path class="st1" d="M1747.58,1663.98c0-73.93-60.15-134.08-134.08-134.08h-861.8c-46.7,0-90.61-18.19-123.64-51.21
		c-33.02-33.02-51.21-76.93-51.21-123.64h-30c0,54.72,21.31,106.16,60,144.85s90.13,60,144.85,60h861.8
		c57.39,0,104.08,46.69,104.08,104.08"/>
</g>
<g>
	<path class="st0" d="M1697.58,1663.98c0-46.36-37.72-84.08-84.08-84.08h-861.8c-60.06,0-116.52-23.39-158.99-65.86
		c-42.47-42.47-65.86-98.93-65.86-158.99h-30c0,68.07,26.51,132.07,74.64,180.21c48.13,48.13,112.13,74.64,180.21,74.64h861.8
		c29.82,0,54.08,24.26,54.08,54.08"/>
</g>
<path class="st4" d="M1613.5,1479.91H814h-30h-20h-12.29c-6.01,0-11.92-0.44-17.71-1.26c-6.86-0.98-13.54-2.51-20-4.56v-3.68
	c0-77.2-62.8-140-140-140s-140,62.8-140,140v610.73c0,84.96-69.12,154.08-154.08,154.08s-154.08-69.12-154.08-154.08v-945.8
	c0-85.38-69.46-154.85-154.85-154.85v30c68.84,0,124.85,56.01,124.85,124.85v945.8c0,101.5,82.58,184.08,184.08,184.08
	S464,2182.62,464,2081.12V1470.4c0-60.65,49.35-110,110-110c7.91,0,15.62,0.85,23.05,2.44c2.87,57.81,37.6,107.37,86.95,131.46
	c9.5,4.64,19.54,8.33,30,10.96c6.51,1.64,13.19,2.85,20,3.63c5.81,0.66,11.72,1.02,17.71,1.02H764h20h30h799.5
	c84.96,0,154.08,69.12,154.08,154.08h30C1797.58,1562.48,1715,1479.91,1613.5,1479.91z M628.43,1374.84
	c30.2,17.27,51.47,48.43,55.03,84.71C654.65,1440.67,634.09,1410.22,628.43,1374.84z"/>
<path class="st1" d="M764,1479.91v-9.51c0-50.75-19.76-98.46-55.65-134.35c-35.89-35.89-83.6-55.65-134.35-55.65
	c-50.75,0-98.46,19.76-134.35,55.65c-35.89,35.89-55.65,83.6-55.65,134.35v610.73c0,57.39-46.69,104.08-104.08,104.08
	s-104.08-46.69-104.08-104.08v-945.8c0-54.72-21.31-106.16-60-144.85s-90.13-60-144.85-60v30c46.7,0,90.61,18.19,123.64,51.21
	c33.02,33.02,51.21,76.93,51.21,123.64v945.8c0,73.93,60.15,134.08,134.08,134.08S414,2155.05,414,2081.12V1470.4
	c0-42.74,16.64-82.92,46.86-113.14s70.4-46.86,113.14-46.86s82.92,16.64,113.14,46.86c30.22,30.22,46.86,70.4,46.86,113.14v8.25
	c5.79,0.83,11.7,1.26,17.71,1.26H764z"/>
<path class="st0" d="M814,1470.4c0-64.11-24.96-124.38-70.29-169.71c-45.33-45.33-105.6-70.29-169.71-70.29
	c-64.11,0-124.38,24.96-169.71,70.29c-45.33,45.33-70.29,105.6-70.29,169.71v610.73c0,29.82-24.26,54.08-54.08,54.08
	s-54.08-24.26-54.08-54.08v-945.8c0-68.07-26.51-132.07-74.64-180.21C103.07,906.99,39.07,880.48-29,880.48v30
	c60.06,0,116.52,23.39,158.99,65.86c42.47,42.47,65.86,98.93,65.86,158.99v945.8c0,46.36,37.72,84.08,84.08,84.08
	s84.08-37.72,84.08-84.08V1470.4c0-56.09,21.84-108.83,61.51-148.49c39.66-39.66,92.4-61.51,148.49-61.51
	c56.09,0,108.83,21.84,148.49,61.51c39.66,39.66,61.51,92.4,61.51,148.49v9.51h30V1470.4z"/>
<g>
	<path class="st4" d="M1366,2955.08h-325.44c-48.94,0-96.45-9.6-141.21-28.53c-43.2-18.27-81.99-44.42-115.27-77.71
		c-33.29-33.29-59.43-72.07-77.71-115.27c-18.93-44.76-28.53-92.27-28.53-141.21v-207.54c0-73.24-59.58-132.82-132.82-132.82H344
		v-30h201.02c89.78,0,162.82,73.04,162.82,162.82v207.54c0,44.9,8.8,88.48,26.16,129.52c16.76,39.62,40.75,75.2,71.29,105.75
		s66.12,54.53,105.75,71.29c41.04,17.36,84.62,26.16,129.52,26.16H1366V2955.08z"/>
</g>
</svg>
