<?xml version="1.0" encoding="utf-8"?>
<!-- Generator: Adobe Illustrator 25.3.0, SVG Export Plug-In . SVG Version: 6.00 Build 0)  -->
<svg version="1.1" id="Capa_1" xmlns="http://www.w3.org/2000/svg" xmlns:xlink="http://www.w3.org/1999/xlink" x="0px" y="0px"
	 viewBox="0 0 15 15" style="enable-background:new 0 0 15 15;" xml:space="preserve">
<style type="text/css">
	.st0{fill:#FFFFFF;}
</style>
<g>
	<path class="st0" d="M6.38,7.07c0,0,1.1-0.09,1.1-1.5c0-1.41-0.9-2.1-2.04-2.1H1.69v7.89h3.75c0,0,2.29,0.08,2.29-2.33
		C7.73,9.03,7.83,7.07,6.38,7.07L6.38,7.07z M5.17,4.87h0.27c0,0,0.51,0,0.51,0.82c0,0.82-0.3,0.94-0.64,0.94H3.34V4.87L5.17,4.87
		L5.17,4.87z M5.33,9.96H3.34V7.85h2.1c0,0,0.76-0.01,0.76,1.08C6.2,9.86,5.63,9.95,5.33,9.96L5.33,9.96z M10.78,5.48
		c-2.77,0-2.77,3.03-2.77,3.03s-0.19,3.02,2.77,3.02c0,0,2.47,0.15,2.47-2.1h-1.27c0,0,0.04,0.85-1.16,0.85c0,0-1.27,0.09-1.27-1.37
		h3.73C13.29,8.9,13.7,5.48,10.78,5.48L10.78,5.48z M9.54,7.85c0,0,0.15-1.22,1.27-1.22c1.11,0,1.1,1.22,1.1,1.22H9.54z M12.2,4.91
		H9.23V3.93h2.97L12.2,4.91L12.2,4.91z"/>
</g>
</svg>
