<?xml version="1.0" encoding="utf-8"?>
<!-- Generator: Adobe Illustrator 25.3.0, SVG Export Plug-In . SVG Version: 6.00 Build 0)  -->
<svg version="1.1" id="Capa_1" xmlns="http://www.w3.org/2000/svg" xmlns:xlink="http://www.w3.org/1999/xlink" x="0px" y="0px"
	 viewBox="0 0 15 15" style="enable-background:new 0 0 15 15;" xml:space="preserve">
<style type="text/css">
	.st0{fill:#FFFFFF;}
</style>
<g>
	<path class="st0" d="M7.5,14.61L3.46,7.58C3.34,7.31,2.5,5.31,3.43,3.09c0.96-2.31,3.12-2.65,4-2.7l0.04,0l0.08,0
		c0.89,0.04,3.05,0.39,4.01,2.7l0,0c0.92,2.23,0.09,4.22-0.01,4.44L7.5,14.61z M7.5,1.59L7.5,1.59C6.83,1.62,5.23,1.87,4.53,3.55
		C3.79,5.34,4.5,6.97,4.53,7.04L7.5,12.2l3-5.22c0-0.01,0.71-1.64-0.03-3.44v0c-0.69-1.67-2.3-1.93-2.95-1.96L7.5,1.59z M7.57,7.9
		c-1.33,0-2.41-1.16-2.41-2.58s1.08-2.58,2.41-2.58S9.98,3.9,9.98,5.32S8.9,7.9,7.57,7.9z M7.57,3.94c-0.67,0-1.21,0.62-1.21,1.38
		S6.9,6.7,7.57,6.7s1.21-0.62,1.21-1.38S8.23,3.94,7.57,3.94z"/>
</g>
</svg>
