<?xml version="1.0" encoding="utf-8"?>
<!-- Generator: Adobe Illustrator 25.3.0, SVG Export Plug-In . SVG Version: 6.00 Build 0)  -->
<svg version="1.1" id="Capa_1" xmlns="http://www.w3.org/2000/svg" xmlns:xlink="http://www.w3.org/1999/xlink" x="0px" y="0px"
	 viewBox="0 0 15 15" style="enable-background:new 0 0 15 15;" xml:space="preserve">
<style type="text/css">
	.st0{fill:#FFFFFF;}
</style>
<path class="st0" d="M12.32,3.22H2.68c-0.63,0-1.15,0.55-1.15,1.23v6.1c0,0.68,0.52,1.23,1.15,1.23h9.64c0.63,0,1.15-0.55,1.15-1.23
	v-6.1C13.47,3.77,12.95,3.22,12.32,3.22z M11.29,4.26L7.5,6.87L3.71,4.26H11.29z M5.78,6.94L7.5,8.13l1.72-1.18l2.64,3.8h-8.7
	L5.78,6.94z M10.05,6.36l2.42-1.67l-0.01,5.14L10.05,6.36z M2.53,9.85V4.69l2.42,1.67L2.53,9.85z"/>
</svg>
