<?xml version="1.0" encoding="utf-8"?>
<!-- Generator: Adobe Illustrator 25.3.0, SVG Export Plug-In . SVG Version: 6.00 Build 0)  -->
<svg version="1.1" id="Capa_1" xmlns="http://www.w3.org/2000/svg" xmlns:xlink="http://www.w3.org/1999/xlink" x="0px" y="0px"
	 viewBox="0 0 15 15" style="enable-background:new 0 0 15 15;" xml:space="preserve">
<style type="text/css">
	.st0{fill:#FFFFFF;}
</style>
<g>
	<g>
		<g>
			<path class="st0" d="M10.04,1.38H4.96c-1.74,0-3.16,1.55-3.16,3.46v4.83c0,2.18,1.62,3.95,3.61,3.95h4.29
				c1.92,0,3.49-1.71,3.49-3.82V4.84C13.19,2.93,11.78,1.38,10.04,1.38z M12.1,9.8c0,1.45-1.07,2.62-2.39,2.62H5.41
				c-1.38,0-2.51-1.23-2.51-2.75V4.84c0-1.25,0.92-2.26,2.06-2.26h5.07c1.14,0,2.06,1.01,2.06,2.26V9.8z"/>
		</g>
	</g>
	<g>
		<g>
			<path class="st0" d="M7.5,4.41c-1.55,0-2.82,1.39-2.82,3.09c0,1.7,1.26,3.09,2.82,3.09s2.82-1.39,2.82-3.09
				C10.32,5.8,9.05,4.41,7.5,4.41z M7.5,9.39c-0.95,0-1.72-0.85-1.72-1.89c0-1.04,0.77-1.89,1.72-1.89c0.95,0,1.72,0.85,1.72,1.89
				C9.22,8.54,8.45,9.39,7.5,9.39z"/>
		</g>
	</g>
	<g>
		<g>
			<path class="st0" d="M11.08,4.29c0,0.4-0.29,0.72-0.65,0.72c-0.36,0-0.65-0.32-0.65-0.72c0-0.4,0.29-0.72,0.65-0.72
				C10.79,3.58,11.08,3.9,11.08,4.29z"/>
		</g>
	</g>
</g>
</svg>
