<?xml version="1.0" encoding="utf-8"?>
<!-- Generator: Adobe Illustrator 25.3.0, SVG Export Plug-In . SVG Version: 6.00 Build 0)  -->
<svg version="1.1" id="Capa_1" xmlns="http://www.w3.org/2000/svg" xmlns:xlink="http://www.w3.org/1999/xlink" x="0px" y="0px"
	 viewBox="0 0 15 15" style="enable-background:new 0 0 15 15;" xml:space="preserve">
<style type="text/css">
	.st0{fill:#FFFFFF;}
</style>
<g>
	<path class="st0" d="M10.56,14c-0.17,0-0.31-0.01-0.43-0.02c-0.63-0.04-1.11-0.21-1.42-0.34c-2.42-0.98-4.37-2.96-4.38-2.98
		c-0.01-0.01-1.7-1.75-2.66-3.89c-0.2-0.45-0.44-1.07-0.48-1.86C1.16,4.29,1.26,3.79,1.32,3.54C1.44,3.06,1.77,1.8,2.9,1.24
		C3.3,1.05,3.74,0.96,4.2,1.01c0.39,0.03,0.74,0.31,0.88,0.7l0.95,2.73c0.13,0.38,0.06,0.8-0.18,1.11L5.17,6.43
		C5.13,6.47,5.13,6.55,5.15,6.6c0.37,0.74,0.82,1.41,1.36,1.98c0.04,0.04,0.08,0.08,0.12,0.11c0.27,0.22,1.24,0.98,2.19,1.38
		l0.9-1.12c0.29-0.37,0.8-0.48,1.21-0.26l2.31,1.28c0.41,0.22,0.63,0.69,0.56,1.17l0,0c-0.08,0.49-0.24,0.94-0.49,1.34
		c-0.16,0.27-0.53,0.76-1.16,1.12C11.56,13.94,10.99,14,10.56,14z M3.97,2.1c-0.21,0-0.4,0.04-0.58,0.13
		c-0.68,0.34-0.92,1.24-1,1.59C2.34,4,2.27,4.38,2.29,4.86c0.03,0.61,0.22,1.11,0.38,1.47C3.55,8.28,5.11,9.88,5.12,9.9
		c0.02,0.02,1.82,1.84,4,2.73c0.24,0.1,0.61,0.23,1.08,0.26c0.35,0.02,0.87,0.06,1.4-0.25c0.41-0.24,0.66-0.57,0.77-0.75
		c0.17-0.27,0.28-0.58,0.33-0.92c0-0.02,0-0.04-0.01-0.04l-2.19-1.21l-0.79,1.01c-0.32,0.41-0.86,0.56-1.33,0.36
		c-1.05-0.44-2.07-1.22-2.46-1.54C5.85,9.48,5.77,9.41,5.7,9.33C5.09,8.68,4.58,7.93,4.16,7.09C3.95,6.65,4,6.13,4.3,5.75l0.69-0.87
		L4.05,2.1C4.02,2.1,4,2.1,3.97,2.1z M4.1,2.11C4.1,2.11,4.1,2.11,4.1,2.11C4.1,2.11,4.1,2.11,4.1,2.11z"/>
</g>
</svg>
