<?xml version="1.0" encoding="utf-8"?>
<!-- Generator: Adobe Illustrator 25.3.0, SVG Export Plug-In . SVG Version: 6.00 Build 0)  -->
<svg version="1.1" id="Capa_1" xmlns="http://www.w3.org/2000/svg" xmlns:xlink="http://www.w3.org/1999/xlink" x="0px" y="0px"
	 viewBox="0 0 17.76 10.98" style="enable-background:new 0 0 17.76 10.98;" xml:space="preserve">
<g>
	<path d="M2.67,8.6h1.97v0.74H1.87V2.19h0.8V8.6z"/>
	<path d="M6.12,7.37c0,0.75,0.09,1.39,1,1.39s1-0.64,1-1.39V4.88h0.76v2.57c0,1.18-0.45,2.01-1.76,2.01S5.37,8.63,5.37,7.45V4.88
		h0.76V7.37z"/>
	<path d="M11.01,9.34h-0.76V1.52h0.76V9.34z"/>
	<path d="M13.12,7.37c0,0.75,0.09,1.39,1,1.39c0.92,0,1-0.64,1-1.39V4.88h0.76v2.57c0,1.18-0.45,2.01-1.76,2.01
		s-1.76-0.82-1.76-2.01V4.88h0.76V7.37z"/>
</g>
</svg>
