<?xml version="1.0" encoding="utf-8"?>
<!-- Generator: Adobe Illustrator 25.3.0, SVG Export Plug-In . SVG Version: 6.00 Build 0)  -->
<svg version="1.1" id="Capa_1" xmlns="http://www.w3.org/2000/svg" xmlns:xlink="http://www.w3.org/1999/xlink" x="0px" y="0px"
	 viewBox="0 0 200.2 80" style="enable-background:new 0 0 200.2 80;" xml:space="preserve">
<style type="text/css">
	.st0{fill:#FFFFFF;}
</style>
<g>
	<path class="st0" d="M44.9,57.9c0.8,1.2,1.3,2.7,1.3,4.4c0,1.7-0.1,3.2-0.3,4.4c-0.2,1.2-0.6,2.4-1,3.5c-0.9,2.5-2.1,4.1-3.5,4.9
		H3.9c2.5-1.5,4.1-2.8,4.8-4c1.4-2.1,2.1-4.8,2.1-8.2c0-8.3,0-15.7,0-22.4V16.2c0-4.5-0.7-7.8-2.2-9.9C8,5.5,7.3,4.7,6.6,3.9h19.1
		c-1.8,2.6-2.9,5.4-3.1,8.2c-0.1,0.9-0.1,2-0.1,3.1v42.7c0,5.8,0.3,9.3,0.9,10.4c0.6,1.1,1.4,1.8,2.2,2c0.9,0.2,2.2,0.3,4,0.3
		s3.4-0.3,5-0.9c1.6-0.6,3-1.5,4.2-2.6C41,65,43,62,44.9,57.9z"/>
	<path class="st0" d="M86.9,51.3l0.2-17.9c0-12.5-0.5-20.5-1.4-24c-0.4-1.7-1-2.9-1.6-3.7c-0.6-0.8-1.1-1.4-1.5-1.8H98l-1,1.3
		c-1.4,2-2.2,4.4-2.3,6.9c-0.2,2.6-0.3,5.2-0.3,7.8c-0.1,2.6-0.1,5.3-0.2,7.9c-0.1,4.4-0.1,9.3-0.1,14.7v5.7c0,10-1.6,17.2-4.8,21.6
		c-3.2,4.2-8.4,6.3-15.6,6.3c-14,0-21-9-20.9-27l0-34.9c0-4.9-0.9-8.4-2.6-10.3h17.7C65.9,6.1,65,9.2,65,13.3c0,2.4,0,4.8,0,7.3
		l-0.2,14.9c0,2.5,0,5,0,7.6c0,9.3,0.3,15.3,0.8,17.8c0.6,2.5,1.2,4.4,2,5.8c1.9,3.2,4.6,4.8,8.3,4.8c5.7,0,9.1-4.1,10.4-12.4
		C86.7,56.6,86.9,54,86.9,51.3z"/>
	<path class="st0" d="M143.2,57.9c0.8,1.2,1.3,2.7,1.3,4.4c0,1.7-0.1,3.2-0.3,4.4c-0.2,1.2-0.6,2.4-1,3.5c-0.9,2.5-2.1,4.1-3.5,4.9
		h-37.4c2.5-1.5,4.1-2.8,4.8-4c1.4-2.1,2.1-4.8,2.1-8.2c0-8.3,0-15.7,0-22.4V16.2c0-4.5-0.7-7.8-2.2-9.9c-0.5-0.8-1.2-1.6-2-2.4H124
		c-1.8,2.6-2.9,5.4-3.1,8.2c-0.1,0.9-0.1,2-0.1,3.1v42.7c0,5.8,0.3,9.3,0.9,10.4c0.6,1.1,1.4,1.8,2.2,2c0.9,0.2,2.2,0.3,4,0.3
		c1.8,0,3.4-0.3,5-0.9c1.6-0.6,3-1.5,4.2-2.6C139.3,65,141.3,62,143.2,57.9z"/>
	<path class="st0" d="M185.2,51.3l0.2-17.9c0-12.5-0.5-20.5-1.4-24c-0.4-1.7-1-2.9-1.6-3.7c-0.6-0.8-1.1-1.4-1.5-1.8h15.3l-1,1.3
		c-1.4,2-2.2,4.4-2.3,6.9c-0.2,2.6-0.3,5.2-0.3,7.8c-0.1,2.6-0.1,5.3-0.2,7.9c-0.1,4.4-0.1,9.3-0.1,14.7v5.7c0,10-1.6,17.2-4.8,21.6
		c-3.2,4.2-8.4,6.3-15.6,6.3c-14,0-21-9-20.9-27l0-34.9c0-4.9-0.9-8.4-2.6-10.3H166c-1.8,2.2-2.7,5.3-2.7,9.4c0,2.4,0,4.8,0,7.3
		L163,35.5c0,2.5,0,5,0,7.6c0,9.3,0.3,15.3,0.8,17.8c0.6,2.5,1.2,4.4,2,5.8c1.9,3.2,4.6,4.8,8.3,4.8c5.7,0,9.1-4.1,10.4-12.4
		C185,56.6,185.2,54,185.2,51.3z"/>
</g>
</svg>
