<?xml version="1.0" encoding="utf-8"?>
<!-- Generator: Adobe Illustrator 25.3.0, SVG Export Plug-In . SVG Version: 6.00 Build 0)  -->
<svg version="1.1" id="Capa_1" xmlns="http://www.w3.org/2000/svg" xmlns:xlink="http://www.w3.org/1999/xlink" x="0px" y="0px"
	 viewBox="0 0 50 50" style="enable-background:new 0 0 50 50;" xml:space="preserve">
<path d="M5.2,27.2H15v10.1c0,1.5,0.2,2.4,0.7,2.9c0.5,0.5,1.5,0.7,2.9,0.7h0.5V50h-2.6c-3.6,0-6.3-1-8.3-3c-2-2-3-4.7-3-8.3V27.2z"
	/>
<path d="M41.7,28.9v9.6c0,3-0.8,5.3-2.6,7.1c-1.7,1.7-4,2.6-7,2.6c-2.9,0-5.1-0.8-6.5-2.4c-1.5-1.7-2.3-4.2-2.3-7.5v-9.4h2.6h2.9
	v9.3c0,4.2,2.9,4.5,3.7,4.5c0.9,0,3.7-0.3,3.7-4.5v-9.3h3.1H41.7 M43.5,27.2h-4.1h-4.9v11.1c0,1.9-0.6,2.8-1.9,2.8
	c-1.3,0-2-0.9-2-2.8V27.2h-4.7h-4.4v11.1c0,3.8,0.9,6.7,2.7,8.7c1.8,2,4.4,3,7.9,3c3.4,0,6.2-1,8.3-3.1c2.1-2.1,3.1-4.8,3.1-8.3
	V27.2L43.5,27.2z"/>
<path d="M13.2,1.8v8.3c0,2,0.4,3.3,1.3,4.2c0.7,0.6,1.6,1,2.9,1.2v3.1v2.6h-0.8c-3.1,0-5.4-0.8-7.1-2.5c-1.7-1.7-2.5-4-2.5-7V1.8H10
	H13.2 M15,0h-5H5.2v11.6c0,3.5,1,6.3,3,8.3c2,2,4.8,3,8.3,3h2.6v-4.4v-4.8h-0.5c-1.4,0-2.4-0.2-2.9-0.7c-0.5-0.5-0.7-1.5-0.7-2.9V0
	L15,0z"/>
<path d="M43.5,0v11.4c0,3.5-1,6.2-3.1,8.3c-2.1,2.1-4.8,3.1-8.3,3.1c-3.4,0-6-1-7.9-3c-1.8-2-2.7-4.9-2.7-8.7V0h9v11.1
	c0,1.9,0.7,2.8,2,2.8c1.3,0,1.9-0.9,1.9-2.8V0H43.5z"/>
</svg>
