<svg id="Capa_1" data-name="Capa 1" xmlns="http://www.w3.org/2000/svg" viewBox="0 0 60 60"><defs><style>.cls-1{fill:#fff;}</style></defs><path class="cls-1" d="M37,30V49a9.63,9.63,0,0,1,0,1.2,2,2,0,0,1-3.47,1.45c-1.77-1.43-3.48-2.95-5.2-4.44Q24.45,44,20.65,40.65a2.06,2.06,0,0,0-1.48-.49H10.12a3.26,3.26,0,0,1-3.59-3.63q0-6.6,0-13.18a3.35,3.35,0,0,1,3.58-3.59c2.88,0,5.76,0,8.64,0a3.38,3.38,0,0,0,2.45-.89C25.12,15.48,29.07,12.11,33,8.7,33.8,8,34.6,7.47,35.7,8A2.39,2.39,0,0,1,37,10.49Q37,20.24,37,30Z"/><path class="cls-1" d="M53.47,24.4a2,2,0,0,1-.69,1.41c-1.19,1.18-2.35,2.39-3.56,3.54-.5.48-.53.82,0,1.31,1.21,1.15,2.39,2.35,3.56,3.54.86.89.93,1.76.22,2.48a1.67,1.67,0,0,1-2.48-.21c-1.22-1.2-2.43-2.4-3.62-3.63-.42-.44-.72-.45-1.14,0-1.21,1.25-2.46,2.47-3.7,3.69a1.64,1.64,0,0,1-2.09.4,1.54,1.54,0,0,1-.25-2.56c1.18-1.23,2.38-2.44,3.62-3.62.56-.53.63-.89,0-1.45-1.2-1.11-2.34-2.3-3.49-3.47-.88-.9-.95-1.85-.22-2.56s1.57-.59,2.47.28c1.17,1.15,2.36,2.28,3.46,3.49.59.64.94.57,1.5,0,1.16-1.25,2.37-2.46,3.61-3.62a1.56,1.56,0,0,1,2.73.72A1.6,1.6,0,0,1,53.47,24.4Z"/></svg>